<svg width="118" height="140" viewBox="0 0 118 140" fill="none" xmlns="http://www.w3.org/2000/svg">
<path d="M93.4408 60.8062C90.7191 59.4176 88.8861 58.3067 86.8865 57.4735C78.777 53.8631 70.6675 50.3081 62.5024 46.8088C42.0064 38.0883 23.3989 25.924 4.73592 13.9264C3.79166 13.3154 2.90295 12.6489 2.18087 11.8713C0.236805 9.76056 -0.207554 7.31664 0.90334 4.70604C2.06978 2.0399 5.29137 0.373502 8.23524 1.04004C10.0127 1.42885 11.7901 2.09533 13.4564 2.9285C16.7336 4.59484 20.0107 6.31676 23.1212 8.37191C43.2284 21.7026 64.9464 31.9229 87.1643 41.1989C94.6628 44.3094 102.106 47.642 109.549 50.8636C113.381 52.5299 117.158 54.5852 117.547 59.2509C117.992 64.4721 114.103 67.1382 110.104 69.3044C87.6642 81.6353 67.3348 97.0769 47.3943 113.018C42.5063 116.906 37.2296 120.406 32.175 124.183C30.1754 125.738 27.6759 127.182 26.565 129.293C22.7324 136.569 15.5671 137.402 8.90177 139.013C6.34672 139.624 3.79166 138.235 2.29196 135.847C0.792251 133.459 0.736706 130.848 2.29196 128.515C3.51394 126.682 5.01364 125.016 6.67999 123.627C9.23504 121.516 12.1234 119.795 14.8451 117.851C25.8985 109.797 37.1185 101.965 47.9497 93.5776C61.1138 83.4129 74.3334 73.2481 88.6084 64.6387C90.1081 63.6389 91.3857 62.417 93.4408 60.8062Z" fill="black"/>
</svg>
