<svg width="142" height="120" viewBox="0 0 142 120" fill="none" xmlns="http://www.w3.org/2000/svg">
<path d="M71.1722 16.4775C84.8917 30.5303 99.6667 43.3055 117.163 54.47C114.292 57.2122 111.513 59.814 108.804 62.3487C104.491 66.3854 100.36 70.2518 96.334 74.244C88.5203 82.1939 80.8552 90.3296 73.1869 98.4688C71.4792 100.281 69.7714 102.094 68.0618 103.905C66.2842 105.793 64.7291 107.848 63.3405 110.015C61.7852 112.459 62.0073 115.014 63.8403 117.235C65.6733 119.457 68.1172 120.346 70.7834 119.291C71.5984 118.963 72.4317 118.657 73.266 118.351C78.2312 116.53 83.227 114.697 84.5585 108.182C84.7118 107.53 85.3148 106.958 85.9112 106.392C86.179 106.138 86.4455 105.885 86.6693 105.627C89.1193 102.984 91.5529 100.325 93.9873 97.665C99.2792 91.8823 104.575 86.0954 110.053 80.4649C117.774 72.522 125.55 64.5236 137.104 62.0241C139.77 61.4687 141.325 59.1913 141.547 56.303C141.769 53.4702 140.547 51.304 138.159 49.8043C137.429 49.332 136.633 48.9924 135.847 48.6574C135.617 48.559 135.387 48.461 135.16 48.3601C122.662 42.5279 111.553 34.585 101.166 25.6423C96.315 21.4947 91.6119 17.1495 86.9087 12.8043C84.5577 10.6322 82.2067 8.46013 79.8372 6.31276C79.3204 5.85498 78.8114 5.38934 78.303 4.92421C76.8989 3.63977 75.499 2.35913 73.9494 1.25814C71.3389 -0.57483 67.8395 -0.185942 65.7844 1.75812C63.6737 3.81328 63.2849 6.9793 65.34 9.8121C67.0619 12.2005 69.1171 14.3668 71.1722 16.4775Z" fill="black"/>
<path d="M69.9391 53.0279C71.2759 53.8625 72.7297 54.77 74.3938 55.7477C73.6793 56.2984 73.0765 56.7694 72.5512 57.1798C71.1163 58.3009 70.2596 58.9703 69.2837 59.5802C49.232 71.5779 30.6801 85.6308 12.2948 99.9613C9.40652 102.239 6.51816 104.571 4.01865 107.293C2.5745 108.793 1.63027 111.015 1.13035 113.07C0.574903 115.292 1.4636 117.736 3.74092 118.624C5.2962 119.235 7.35133 119.346 8.90661 118.791C10.7429 118.146 12.3576 116.924 13.9486 115.72C14.1381 115.577 14.3274 115.433 14.5166 115.292C20.6821 110.626 26.9031 105.905 33.013 101.128C47.6213 89.6855 62.6182 78.9099 78.5041 69.4117C78.7696 69.2539 79.0342 69.0949 79.2982 68.9361C83.1229 66.6373 86.8506 64.3967 91.8904 66.5789C94.3899 67.6898 96.8894 65.9124 98.278 63.4129C99.6667 60.9134 99.3333 58.3027 97.6115 56.1365C96.5006 54.6923 95.112 53.3038 93.5567 52.4706C90.5939 50.8781 87.6365 49.2745 84.6792 47.671C74.3305 42.0599 63.9818 36.4487 53.3979 31.308C42.8247 26.1816 32.107 21.4306 21.3908 16.6802C17.2449 14.8424 13.0992 13.0046 8.96214 11.1453C8.76619 11.0473 8.57017 10.9253 8.37421 10.8033C7.90366 10.5103 7.4331 10.2174 6.96254 10.2567C6.72448 10.2757 6.46846 10.2898 6.20484 10.3044C4.93074 10.3748 3.47913 10.4549 3.01888 11.1453C2.13018 12.4783 1.35254 14.9779 2.01905 16.0333C3.51873 18.4217 5.62946 20.8102 8.07344 22.1988C15.1276 26.198 22.3485 29.8639 29.6803 33.4187C35.3459 36.1404 41.0393 38.7927 46.7326 41.445C52.4259 44.0972 58.1192 46.7494 63.7847 49.4711C65.7999 50.4439 67.7064 51.6341 69.9391 53.0279Z" fill="black"/>
</svg>
